<?xml version="1.0" standalone="no"?>
<!DOCTYPE svg PUBLIC "-//W3C//DTD SVG 20010904//EN"
 "http://www.w3.org/TR/2001/REC-SVG-20010904/DTD/svg10.dtd">
<svg version="1.0" xmlns="http://www.w3.org/2000/svg"
 width="250px" height="250px" viewBox="10 10 700.000000 700.000000"
 preserveAspectRatio="xMidYMid meet">

<g transform="translate(0.000000,500.000000) scale(0.100000,-0.100000)"
fill="#000000" stroke="none">
<path d="M2330 3600 c-273 -28 -536 -188 -691 -424 -114 -173 -165 -358 -156
-566 7 -155 31 -251 97 -385 64 -129 152 -241 254 -321 385 -305 916 -282
1268 54 129 123 223 287 269 467 33 131 32 321 -4 457 -67 253 -218 456 -437
588 -178 107 -384 151 -600 130z m421 -297 c16 -10 37 -34 47 -54 15 -32 23
-38 59 -44 99 -15 166 -109 147 -205 l-10 -47 48 -22 c26 -12 60 -38 75 -58
l28 -36 2 -181 c1 -138 -2 -186 -13 -207 -18 -35 -80 -87 -114 -94 -26 -6 -27
-7 -17 -49 5 -24 7 -59 3 -77 -12 -67 -95 -139 -160 -139 -20 0 -30 -8 -43
-37 -28 -58 -64 -78 -136 -77 -67 0 -112 18 -159 62 l-28 26 0 579 c0 392 3
585 11 598 6 11 31 34 57 50 38 24 56 29 110 29 43 0 74 -6 93 -17z"/>
<path d="M2660 3146 c0 -117 3 -146 16 -156 19 -17 15 -69 -7 -83 -9 -5 -27
-7 -41 -4 -35 9 -43 45 -17 80 19 26 20 40 17 157 -2 71 -6 131 -9 134 -8 9
-60 -11 -81 -31 -17 -15 -18 -55 -18 -580 l0 -563 53 29 c28 17 57 40 64 52
24 45 64 52 89 14 15 -23 15 -27 -1 -51 -14 -21 -23 -25 -48 -21 -33 5 -147
-44 -147 -62 0 -19 87 -51 138 -51 61 0 96 26 110 80 8 34 10 35 66 41 51 6
88 22 75 33 -2 2 -68 41 -146 86 l-143 83 0 72 c0 58 -4 77 -20 95 -27 31 -25
44 7 69 23 19 29 20 47 8 26 -18 32 -59 12 -77 -24 -19 -22 -132 2 -152 32
-27 273 -160 279 -154 13 13 13 112 1 136 -8 14 -43 42 -78 62 -102 59 -100
57 -100 147 0 58 -4 82 -15 91 -21 17 -19 54 5 75 17 15 24 16 45 7 35 -16 41
-39 21 -76 -12 -24 -16 -51 -14 -101 l3 -70 78 -43 c90 -52 111 -51 168 7 45
45 57 94 39 163 -10 39 -10 61 1 113 7 36 10 68 6 71 -11 12 -115 -55 -121
-79 -11 -43 -6 -89 17 -128 l22 -40 -29 -25 c-25 -22 -30 -24 -50 -11 -27 18
-32 52 -12 82 10 16 16 47 16 88 0 72 3 77 87 123 31 17 53 36 53 45 0 23 -63
69 -103 76 -27 4 -54 -8 -160 -68 -92 -53 -133 -83 -147 -106 -31 -53 -90 -41
-90 19 0 31 30 53 63 44 13 -3 41 6 74 25 l53 30 0 79 c0 57 -4 81 -15 90 -8
7 -15 20 -15 30 0 21 31 50 53 50 40 0 63 -64 32 -90 -10 -8 -15 -31 -15 -71
0 -33 2 -59 4 -59 15 0 100 56 116 77 41 52 17 162 -42 194 -13 7 -45 16 -72
19 -45 5 -50 8 -61 39 -14 41 -58 81 -91 81 l-24 0 0 -144z"/>
<path d="M2021 1586 c-7 -8 -11 -32 -9 -53 3 -36 5 -38 46 -47 53 -11 50 -30
-6 -34 -34 -3 -42 -7 -42 -23 0 -16 7 -19 54 -19 65 0 86 16 86 65 0 38 -20
55 -64 55 -16 0 -26 6 -26 15 0 11 11 15 40 15 33 0 40 3 40 20 0 18 -7 20
-54 20 -34 0 -58 -5 -65 -14z"/>
<path d="M2180 1505 l0 -95 70 0 c63 0 70 2 70 19 0 16 -8 20 -42 23 -53 4
-61 31 -10 36 24 2 32 8 32 23 0 15 -7 19 -36 19 -51 0 -39 24 14 28 34 3 42
7 42 23 0 17 -7 19 -70 19 l-70 0 0 -95z"/>
<path d="M2350 1505 l0 -95 70 0 c63 0 70 2 70 19 0 16 -8 20 -42 23 -53 4
-61 31 -10 36 24 2 32 8 32 23 0 15 -7 19 -36 19 -51 0 -39 24 14 28 34 3 42
7 42 23 0 17 -7 19 -70 19 l-70 0 0 -95z"/>
<path d="M2510 1580 c0 -15 7 -20 25 -20 24 0 25 -2 25 -75 0 -73 1 -75 25
-75 24 0 25 2 25 75 0 73 1 75 25 75 18 0 25 5 25 20 0 18 -7 20 -75 20 -68 0
-75 -2 -75 -20z"/>
<path d="M2690 1505 l0 -95 60 0 c53 0 60 2 60 20 0 16 -7 20 -35 20 l-35 0 0
75 c0 73 -1 75 -25 75 -25 0 -25 0 -25 -95z"/>
<path d="M2840 1515 c0 -96 7 -105 79 -105 60 0 71 17 71 111 0 78 0 79 -25
79 -24 0 -25 -3 -25 -59 0 -72 -6 -91 -31 -91 -17 0 -19 8 -19 75 0 73 -1 75
-25 75 -25 0 -25 -1 -25 -85z"/>
<path d="M2335 1238 c-12 -32 -45 -131 -45 -135 0 -1 6 -3 14 -3 7 0 16 9 19
20 4 15 14 20 37 20 23 0 33 -5 37 -20 3 -11 12 -20 20 -20 15 0 15 0 -17 95
-12 37 -22 51 -38 53 -12 2 -24 -3 -27 -10z m39 -40 c9 -35 8 -38 -14 -38 -11
0 -20 3 -20 8 0 19 13 52 20 52 4 0 10 -10 14 -22z"/>
<path d="M2450 1243 c0 -4 10 -37 22 -75 18 -57 26 -68 42 -66 15 2 25 20 42
76 17 56 19 72 8 72 -7 0 -21 -24 -30 -55 -10 -30 -21 -52 -25 -50 -4 3 -13
28 -20 55 -7 28 -19 50 -26 50 -7 0 -13 -3 -13 -7z"/>
<path d="M2612 1233 c-11 -30 -8 -99 7 -116 15 -18 81 -24 81 -7 0 6 -11 10
-24 10 -33 0 -48 22 -44 67 3 35 6 38 36 41 46 5 40 22 -8 22 -29 0 -43 -5
-48 -17z"/>
</g>
</svg>